<?xml version="1.0" encoding="UTF-8"?>
<svg xmlns="http://www.w3.org/2000/svg"
     version="1.2"
     baseProfile="tiny-ps"
     viewBox="0 0 1024 1024"
     width="1024"
     height="1024">
  <title>Maxlogic Logo</title>
  <rect width="1024" height="1024" fill="#ffffff"/>
  <path fill="#8C7A6C" fill-rule="evenodd" d="M 767,857 L 767,965 L 783,965 L 783,857 Z M 721,858 L 720,860 L 720,866 L 717,878 L 706,951 L 704,957 L 703,964 L 719,964 L 720,960 L 720,954 L 721,948 L 723,944 L 742,945 L 743,952 L 743,958 L 745,965 L 761,965 L 761,961 L 760,960 L 759,949 L 756,929 L 754,923 L 749,886 L 745,863 L 743,857 Z M 732,880 L 734,888 L 737,916 L 739,923 L 738,929 L 724,928 L 724,926 L 726,911 L 729,897 L 730,890 L 730,882 Z M 603,858 L 604,965 L 620,965 L 619,857 Z M 438,858 L 438,965 L 483,964 L 482,950 L 456,950 L 454,948 L 454,857 Z M 375,857 L 375,860 L 384,886 L 390,900 L 393,909 L 393,911 L 385,931 L 374,962 L 374,965 L 390,964 L 400,932 L 402,929 L 404,931 L 405,936 L 415,965 L 432,965 L 432,962 L 426,945 L 420,931 L 417,920 L 415,917 L 413,911 L 413,909 L 416,900 L 428,869 L 431,860 L 431,857 L 417,857 L 415,859 L 404,891 L 402,888 L 401,883 L 393,859 L 391,857 Z M 332,858 L 331,861 L 317,952 L 314,964 L 330,965 L 330,962 L 331,961 L 332,949 L 334,944 L 353,945 L 354,951 L 354,958 L 356,965 L 372,965 L 372,960 L 370,953 L 370,947 L 366,922 L 364,916 L 356,862 L 354,857 Z M 343,879 L 345,894 L 347,901 L 348,908 L 348,915 L 350,922 L 349,929 L 335,927 L 336,919 L 341,890 L 341,883 Z M 239,858 L 239,965 L 254,964 L 254,889 L 256,893 L 256,900 L 260,920 L 264,953 L 267,965 L 281,964 L 283,945 L 286,932 L 287,918 L 289,912 L 290,898 L 292,890 L 294,965 L 309,965 L 308,857 L 285,858 L 283,868 L 283,875 L 281,882 L 280,896 L 277,910 L 276,925 L 274,932 L 270,911 L 269,896 L 266,882 L 264,861 L 262,857 Z M 647,856 L 643,857 L 639,859 L 633,865 L 630,871 L 629,875 L 629,947 L 632,956 L 635,960 L 639,963 L 645,966 L 650,967 L 658,967 L 665,965 L 669,963 L 674,958 L 676,955 L 679,944 L 679,925 L 663,925 L 663,944 L 662,947 L 658,951 L 656,951 L 654,952 L 650,951 L 647,948 L 646,946 L 645,940 L 645,883 L 646,876 L 651,871 L 657,871 L 659,872 L 662,875 L 663,878 L 663,893 L 679,893 L 679,878 L 677,870 L 674,864 L 670,860 L 661,856 Z M 563,856 L 555,859 L 549,865 L 546,871 L 545,875 L 545,948 L 548,956 L 551,960 L 555,963 L 559,965 L 566,967 L 574,967 L 581,965 L 585,963 L 591,957 L 594,951 L 595,947 L 595,904 L 571,904 L 571,919 L 579,920 L 579,946 L 577,948 L 577,949 L 574,951 L 570,952 L 566,951 L 563,948 L 561,941 L 561,881 L 562,876 L 563,874 L 567,871 L 573,871 L 575,872 L 579,877 L 580,892 L 595,892 L 595,875 L 591,865 L 585,859 L 577,856 Z M 504,856 L 501,857 L 495,860 L 491,864 L 489,867 L 486,877 L 486,945 L 487,950 L 489,955 L 491,958 L 496,963 L 500,965 L 507,967 L 516,967 L 523,965 L 527,963 L 531,960 L 533,957 L 536,951 L 537,947 L 537,875 L 536,871 L 533,865 L 527,859 L 523,857 L 519,856 Z M 508,871 L 515,871 L 517,872 L 519,874 L 520,876 L 521,881 L 521,941 L 520,946 L 519,948 L 517,950 L 515,951 L 508,951 L 506,950 L 505,949 L 503,945 L 503,877 L 504,875 Z M 491,56 L 444,65 L 399,84 L 365,107 L 336,135 L 307,177 L 288,224 L 280,268 L 280,305 L 284,333 L 294,368 L 316,412 L 331,433 L 358,461 L 403,492 L 414,503 L 424,523 L 426,544 L 409,557 L 402,572 L 403,590 L 411,604 L 402,621 L 403,639 L 411,653 L 402,669 L 405,693 L 417,707 L 426,711 L 437,744 L 459,769 L 486,783 L 523,786 L 556,774 L 576,757 L 588,739 L 595,713 L 610,703 L 619,689 L 620,668 L 612,651 L 619,640 L 621,625 L 612,603 L 618,594 L 621,577 L 614,558 L 596,544 L 598,522 L 611,499 L 671,455 L 689,436 L 709,408 L 733,355 L 740,325 L 743,284 L 738,241 L 722,192 L 698,151 L 662,112 L 622,84 L 577,65 L 531,56 Z M 452,717 L 453,713 L 570,716 L 568,724 L 564,732 L 559,739 L 549,749 L 542,754 L 534,758 L 528,760 L 519,762 L 504,762 L 494,760 L 486,757 L 482,755 L 472,748 L 464,740 L 459,733 L 454,723 Z M 426,673 L 427,671 L 432,666 L 437,664 L 585,664 L 592,667 L 594,669 L 596,673 L 597,677 L 595,683 L 591,687 L 587,689 L 435,689 L 431,687 L 428,684 L 426,680 Z M 426,631 L 426,625 L 428,621 L 431,618 L 435,616 L 587,616 L 590,617 L 595,622 L 597,628 L 595,634 L 590,639 L 588,640 L 435,640 L 432,639 L 428,635 Z M 426,576 L 428,572 L 430,570 L 433,568 L 436,567 L 587,567 L 591,569 L 595,573 L 596,575 L 597,580 L 594,587 L 589,591 L 585,592 L 437,592 L 432,590 L 427,585 L 426,583 Z M 463,85 L 494,80 L 543,82 L 584,93 L 620,111 L 648,132 L 666,150 L 681,169 L 700,202 L 713,240 L 718,271 L 718,306 L 712,340 L 701,371 L 689,394 L 667,424 L 643,447 L 605,472 L 590,486 L 576,511 L 571,543 L 450,542 L 448,518 L 443,504 L 434,489 L 421,475 L 378,446 L 352,420 L 330,388 L 317,360 L 309,334 L 304,302 L 304,272 L 307,249 L 315,219 L 336,176 L 363,142 L 391,118 L 419,101 Z M 340,326 L 338,328 L 336,332 L 336,340 L 340,352 L 346,366 L 354,381 L 359,389 L 367,400 L 381,416 L 398,431 L 422,447 L 443,457 L 461,463 L 464,463 L 469,461 L 473,457 L 474,455 L 474,446 L 473,444 L 469,440 L 465,438 L 454,435 L 438,428 L 420,417 L 405,405 L 394,394 L 388,387 L 377,372 L 370,360 L 363,344 L 360,333 L 358,329 L 354,325 L 351,324 L 344,324 Z M 484,153 L 481,154 L 475,161 L 473,197 L 449,173 L 442,171 L 432,176 L 399,209 L 396,214 L 396,222 L 420,251 L 385,251 L 379,256 L 377,260 L 377,313 L 379,318 L 385,323 L 421,325 L 399,347 L 396,352 L 396,360 L 436,401 L 449,401 L 475,378 L 475,413 L 481,420 L 538,421 L 544,418 L 547,414 L 549,377 L 571,399 L 576,402 L 584,402 L 588,400 L 626,361 L 627,354 L 625,349 L 601,325 L 603,323 L 637,323 L 642,320 L 645,315 L 645,259 L 641,253 L 634,250 L 601,249 L 624,226 L 627,217 L 625,211 L 585,172 L 580,171 L 572,174 L 549,197 L 548,164 L 543,155 L 538,153 Z M 500,177 L 522,177 L 524,179 L 523,206 L 525,212 L 529,216 L 549,224 L 555,224 L 559,222 L 580,201 L 597,218 L 577,238 L 574,244 L 575,252 L 583,270 L 591,275 L 621,276 L 620,299 L 591,299 L 586,301 L 582,305 L 574,325 L 574,330 L 577,336 L 597,356 L 580,373 L 559,352 L 555,350 L 548,350 L 528,359 L 525,362 L 523,368 L 522,397 L 499,396 L 499,366 L 497,362 L 493,358 L 483,355 L 474,350 L 467,350 L 462,353 L 442,373 L 425,356 L 447,334 L 448,324 L 440,305 L 432,299 L 401,298 L 402,275 L 432,275 L 436,273 L 440,269 L 448,250 L 448,243 L 446,239 L 425,218 L 442,201 L 462,221 L 467,224 L 473,224 L 493,216 L 499,208 Z M 508,238 L 497,240 L 494,241 L 484,246 L 480,249 L 473,256 L 469,262 L 465,270 L 463,277 L 462,285 L 463,296 L 466,306 L 469,312 L 473,318 L 480,325 L 484,328 L 494,333 L 497,334 L 508,336 L 514,336 L 525,334 L 528,333 L 538,328 L 541,326 L 550,317 L 554,311 L 556,307 L 559,298 L 560,292 L 560,284 L 558,273 L 555,265 L 550,257 L 541,248 L 535,244 L 531,242 L 525,240 L 514,238 Z M 505,263 L 517,263 L 520,264 L 524,266 L 528,269 L 529,270 L 532,274 L 535,280 L 536,288 L 535,294 L 532,300 L 529,304 L 528,305 L 524,308 L 520,310 L 517,311 L 505,311 L 502,310 L 500,309 L 497,307 L 491,301 L 489,298 L 488,296 L 487,292 L 487,282 L 488,278 L 489,276 L 491,273 L 497,267 L 500,265 L 502,264 Z M 552,114 L 550,116 L 548,120 L 548,127 L 550,131 L 553,134 L 555,135 L 569,139 L 588,148 L 601,156 L 615,167 L 631,183 L 642,197 L 650,210 L 657,224 L 662,240 L 665,246 L 667,248 L 671,250 L 678,250 L 681,249 L 685,245 L 687,240 L 687,237 L 683,224 L 674,203 L 669,194 L 659,179 L 646,163 L 634,151 L 623,142 L 612,134 L 595,124 L 584,119 L 565,112 L 555,112 Z"/>
</svg>