<?xml version="1.0" encoding="UTF-8"?>
<svg xmlns="http://www.w3.org/2000/svg"
     version="1.2"
     baseProfile="tiny-ps"
     viewBox="0 0 1024 1024"
     width="1024"
     height="1024">
  <title>Maxlogic Logo</title>
  <rect width="1024" height="1024" fill="#ffffff"/>
  <path fill="#076DF2" fill-rule="evenodd" d="M 767,858 L 767,965 L 783,965 L 782,857 Z M 721,858 L 719,867 L 719,873 L 717,879 L 716,885 L 716,891 L 715,897 L 713,903 L 705,958 L 703,964 L 719,964 L 720,959 L 720,953 L 721,947 L 722,945 L 742,945 L 743,951 L 743,958 L 745,965 L 761,965 L 761,961 L 760,960 L 758,948 L 757,936 L 755,930 L 754,924 L 753,911 L 750,899 L 748,881 L 745,863 L 743,857 Z M 732,880 L 734,888 L 736,901 L 737,915 L 739,922 L 738,930 L 726,930 L 724,928 L 724,925 L 726,911 L 729,897 L 730,889 L 730,882 Z M 603,858 L 604,965 L 620,964 L 619,857 Z M 438,858 L 438,965 L 482,965 L 482,950 L 456,950 L 454,948 L 453,857 Z M 375,857 L 375,860 L 388,897 L 390,900 L 393,909 L 393,911 L 383,937 L 379,951 L 377,954 L 374,963 L 374,965 L 390,964 L 402,928 L 404,931 L 405,936 L 415,965 L 432,965 L 432,962 L 413,911 L 413,909 L 418,894 L 424,880 L 427,869 L 429,866 L 431,860 L 430,857 L 417,857 L 415,859 L 404,891 L 402,889 L 401,886 L 401,883 L 398,877 L 393,859 L 391,857 Z M 332,858 L 316,953 L 316,959 L 315,960 L 315,965 L 330,964 L 331,960 L 331,954 L 332,948 L 334,944 L 353,945 L 354,950 L 354,957 L 355,963 L 356,965 L 372,965 L 372,961 L 360,886 L 356,863 L 354,857 Z M 343,879 L 345,887 L 350,922 L 349,930 L 337,930 L 335,928 L 335,926 L 336,919 L 341,890 L 341,883 Z M 239,858 L 240,965 L 253,965 L 254,889 L 256,892 L 256,899 L 261,933 L 267,965 L 280,965 L 281,963 L 292,889 L 294,965 L 309,964 L 308,857 L 285,858 L 279,904 L 276,918 L 276,926 L 274,932 L 271,919 L 270,904 L 267,890 L 264,862 L 262,857 Z M 647,856 L 643,857 L 639,859 L 633,865 L 629,875 L 629,947 L 631,953 L 635,960 L 643,965 L 646,966 L 655,967 L 665,965 L 669,963 L 674,958 L 677,952 L 679,944 L 678,925 L 663,925 L 663,944 L 662,947 L 658,951 L 656,951 L 654,952 L 650,951 L 647,948 L 646,946 L 645,940 L 645,882 L 646,876 L 647,874 L 651,871 L 658,871 L 662,875 L 663,878 L 663,893 L 679,892 L 679,879 L 677,870 L 673,863 L 670,860 L 661,856 Z M 563,856 L 555,859 L 549,865 L 546,871 L 545,875 L 545,947 L 546,951 L 551,960 L 559,965 L 562,966 L 571,967 L 578,966 L 585,963 L 591,957 L 593,953 L 595,946 L 595,904 L 571,904 L 571,919 L 579,920 L 579,946 L 577,948 L 577,949 L 574,951 L 570,952 L 566,951 L 563,948 L 561,942 L 561,880 L 563,874 L 567,871 L 574,871 L 578,875 L 579,877 L 580,892 L 595,891 L 595,876 L 593,869 L 591,865 L 585,859 L 577,856 Z M 505,856 L 501,857 L 494,861 L 492,863 L 490,866 L 487,873 L 486,878 L 486,944 L 487,950 L 489,955 L 491,958 L 495,962 L 498,964 L 503,966 L 510,967 L 513,967 L 520,966 L 527,963 L 533,957 L 536,951 L 537,947 L 537,875 L 536,871 L 534,867 L 532,864 L 528,860 L 522,857 L 519,856 Z M 508,871 L 515,871 L 517,872 L 519,874 L 520,876 L 521,880 L 521,942 L 520,946 L 519,948 L 516,951 L 508,951 L 506,950 L 505,949 L 503,945 L 503,877 L 504,875 Z M 492,56 L 444,65 L 399,84 L 364,108 L 337,134 L 310,172 L 294,206 L 282,252 L 280,305 L 293,365 L 316,412 L 337,440 L 357,460 L 403,492 L 414,503 L 424,522 L 426,544 L 409,557 L 402,573 L 403,590 L 411,604 L 402,621 L 403,639 L 411,653 L 402,670 L 405,693 L 416,706 L 426,711 L 436,742 L 459,769 L 490,784 L 521,786 L 544,780 L 568,765 L 584,746 L 592,729 L 595,713 L 605,707 L 619,689 L 620,668 L 612,651 L 619,640 L 621,627 L 619,616 L 611,604 L 619,591 L 621,578 L 614,558 L 596,544 L 597,525 L 610,500 L 671,455 L 709,408 L 724,379 L 734,351 L 741,317 L 743,284 L 737,237 L 721,190 L 691,142 L 662,112 L 620,83 L 583,67 L 539,57 Z M 452,718 L 453,713 L 571,715 L 570,719 L 568,724 L 564,732 L 560,738 L 548,750 L 542,754 L 534,758 L 528,760 L 519,762 L 503,762 L 498,761 L 488,758 L 480,754 L 473,749 L 464,740 L 456,728 Z M 426,673 L 427,671 L 432,666 L 437,664 L 586,664 L 592,667 L 594,669 L 596,672 L 596,675 L 597,676 L 597,678 L 595,683 L 591,687 L 587,689 L 435,689 L 431,687 L 428,684 L 426,680 Z M 426,624 L 427,622 L 432,617 L 435,616 L 588,616 L 590,617 L 595,622 L 597,627 L 597,629 L 595,634 L 590,639 L 588,640 L 435,640 L 432,639 L 427,634 L 426,632 Z M 426,576 L 428,572 L 431,569 L 435,567 L 587,567 L 591,569 L 595,573 L 597,578 L 597,581 L 596,584 L 594,587 L 591,590 L 586,592 L 437,592 L 434,591 L 429,588 L 429,587 L 427,585 L 426,583 Z M 463,85 L 493,80 L 544,82 L 584,93 L 620,111 L 647,131 L 679,166 L 700,202 L 714,244 L 718,269 L 718,307 L 711,344 L 697,380 L 682,405 L 667,424 L 642,448 L 605,472 L 587,490 L 575,515 L 571,543 L 450,542 L 447,515 L 434,489 L 417,472 L 378,446 L 348,415 L 331,390 L 320,368 L 308,330 L 304,303 L 304,271 L 307,249 L 318,211 L 334,179 L 360,145 L 395,115 L 423,99 Z M 340,326 L 338,328 L 336,332 L 336,340 L 339,349 L 348,370 L 353,379 L 364,396 L 372,406 L 392,426 L 398,431 L 417,444 L 424,448 L 441,456 L 458,462 L 463,463 L 469,461 L 473,457 L 474,455 L 474,446 L 473,444 L 469,440 L 462,437 L 459,437 L 446,432 L 429,423 L 420,417 L 406,406 L 392,392 L 377,372 L 370,360 L 363,344 L 360,333 L 358,329 L 355,326 L 351,324 L 344,324 Z M 485,153 L 480,155 L 475,161 L 473,197 L 447,172 L 438,172 L 397,212 L 397,224 L 420,251 L 386,251 L 379,256 L 377,261 L 377,313 L 379,318 L 385,323 L 421,324 L 421,326 L 399,347 L 396,352 L 396,360 L 436,401 L 446,402 L 450,400 L 475,378 L 475,412 L 480,419 L 484,421 L 538,421 L 544,418 L 547,413 L 549,377 L 574,401 L 584,402 L 588,400 L 626,361 L 627,355 L 625,349 L 602,323 L 637,323 L 642,320 L 645,314 L 645,260 L 642,254 L 637,251 L 601,249 L 624,226 L 627,218 L 624,210 L 585,172 L 574,173 L 550,197 L 547,196 L 548,165 L 544,156 L 538,153 Z M 500,177 L 522,177 L 524,179 L 524,210 L 528,215 L 549,224 L 555,224 L 559,222 L 580,201 L 597,218 L 578,237 L 574,244 L 575,252 L 583,270 L 591,275 L 621,276 L 620,299 L 591,299 L 586,301 L 583,304 L 574,325 L 574,330 L 577,336 L 597,356 L 580,373 L 559,352 L 555,350 L 549,350 L 528,359 L 524,364 L 524,395 L 522,397 L 499,396 L 499,367 L 497,362 L 493,358 L 483,355 L 474,350 L 465,351 L 442,373 L 425,356 L 446,335 L 448,331 L 448,324 L 440,305 L 436,301 L 431,299 L 401,298 L 402,275 L 431,275 L 436,273 L 440,269 L 448,250 L 448,243 L 446,239 L 425,218 L 442,201 L 462,221 L 468,224 L 473,224 L 493,216 L 499,208 Z M 508,238 L 501,239 L 492,242 L 486,245 L 480,249 L 474,255 L 469,262 L 464,273 L 463,278 L 463,296 L 466,306 L 469,312 L 474,319 L 479,324 L 484,328 L 494,333 L 502,335 L 509,336 L 513,336 L 521,335 L 528,333 L 538,328 L 541,326 L 550,317 L 555,309 L 559,298 L 560,291 L 560,285 L 559,284 L 559,277 L 557,270 L 552,260 L 549,256 L 542,249 L 538,246 L 528,241 L 525,240 L 514,238 Z M 505,263 L 518,263 L 524,266 L 527,268 L 530,271 L 532,274 L 535,280 L 536,286 L 536,288 L 535,294 L 532,300 L 530,303 L 528,305 L 527,305 L 524,308 L 520,310 L 517,311 L 511,312 L 505,311 L 502,310 L 500,309 L 497,307 L 490,300 L 488,296 L 487,293 L 487,281 L 488,278 L 490,274 L 498,266 L 502,264 Z M 552,114 L 550,116 L 548,121 L 548,127 L 550,131 L 553,134 L 555,135 L 569,139 L 590,149 L 601,156 L 614,166 L 632,184 L 644,200 L 650,210 L 657,224 L 662,237 L 662,240 L 665,246 L 667,248 L 671,250 L 678,250 L 682,248 L 685,245 L 687,240 L 687,237 L 683,224 L 679,214 L 667,191 L 656,175 L 644,161 L 635,152 L 623,142 L 612,134 L 595,124 L 584,119 L 565,112 L 556,112 Z"/>
</svg>